<svg width="141" height="29" viewBox="0 0 141 29" fill="none" xmlns="http://www.w3.org/2000/svg">
<path d="M14.9984 13.8416C14.5734 13.8416 14.1534 13.7999 13.7351 13.7166C13.3184 13.6333 12.9134 13.5116 12.5218 13.3483C12.1284 13.1849 11.7551 12.9866 11.4018 12.7499C11.0484 12.5133 10.7218 12.2449 10.4201 11.9449C10.1201 11.6449 9.85177 11.3166 9.6151 10.9633C9.37844 10.6099 9.1801 10.2366 9.01677 9.84494C8.85344 9.4516 8.73177 9.0466 8.64844 8.62994C8.5651 8.21327 8.52344 7.7916 8.52344 7.3666C8.52344 6.9416 8.5651 6.51993 8.64844 6.10327C8.73177 5.6866 8.85344 5.2816 9.01677 4.88827C9.1801 4.4966 9.37844 4.12327 9.6151 3.76993C9.85177 3.4166 10.1201 3.08827 10.4201 2.78827C10.7218 2.48827 11.0484 2.21993 11.4018 1.98327C11.7551 1.7466 12.1284 1.5466 12.5218 1.38493C12.9134 1.2216 13.3184 1.09827 13.7351 1.0166C14.1534 0.933268 14.5734 0.891602 14.9984 0.891602C15.4234 0.891602 15.8451 0.933268 16.2618 1.0166C16.6784 1.09827 17.0834 1.2216 17.4768 1.38493C17.8701 1.5466 18.2418 1.7466 18.5968 1.98327C18.9501 2.21993 19.2768 2.48827 19.5768 2.78827C19.8784 3.08827 20.1468 3.4166 20.3818 3.76993C20.6184 4.12327 20.8184 4.4966 20.9801 4.88827C21.1434 5.2816 21.2668 5.6866 21.3484 6.10327C21.4318 6.51993 21.4734 6.9416 21.4734 7.3666C21.4734 7.7916 21.4318 8.21327 21.3484 8.62994C21.2668 9.0466 21.1434 9.4516 20.9801 9.84494C20.8184 10.2366 20.6184 10.6099 20.3818 10.9633C20.1468 11.3166 19.8784 11.6449 19.5768 11.9449C19.2768 12.2449 18.9501 12.5133 18.5968 12.7499C18.2418 12.9866 17.8701 13.1849 17.4768 13.3483C17.0834 13.5116 16.6784 13.6333 16.2618 13.7166C15.8451 13.7999 15.4234 13.8416 14.9984 13.8416Z" fill="#74E0EF"/>
<path d="M6.2916 0.893555V25.2369H0.593262V0.893555H6.2916Z" fill="#7A63FF"/>
<path d="M21.9483 25.395H9V14L21.9483 25.395Z" fill="#E7E7E7"/>
<path d="M41.6941 18.8368C41.4841 16.7368 40.7758 15.2935 38.9391 14.6118C41.2224 13.9551 42.5341 12.4601 42.5341 10.1501C42.5341 6.97513 40.3558 5.66346 37.7324 5.34846C36.7874 5.24346 36.0791 5.2168 35.0024 5.2168H28.1274V23.3235H32.2474V16.2118H33.8741C34.3724 16.2118 34.8191 16.2118 35.3174 16.2385C36.6824 16.3435 37.4441 17.4985 37.6791 19.4668C37.8374 20.9885 38.0991 22.0635 38.5458 23.3235H43.0324C42.2974 22.2735 41.9308 20.9618 41.6941 18.8368ZM32.2474 13.1951V8.41846H34.5308C35.1074 8.41846 35.5541 8.44513 35.9208 8.4718C37.2591 8.62846 38.2308 9.15346 38.2308 10.8068C38.2308 12.4601 37.1024 13.0368 35.7641 13.1685C35.3958 13.1951 34.9508 13.1951 34.3724 13.1951H32.2474Z" fill="white"/>
<path d="M53.0807 23.324H57.0957C56.8857 21.7757 56.8341 20.8307 56.8341 19.7807V15.5307C56.8341 14.7174 56.8074 13.929 56.7557 13.274C56.5457 10.7807 55.0491 8.9707 50.9041 8.9707C47.4924 8.9707 44.7891 10.7807 44.7107 13.9824H48.6474C48.7524 12.5924 49.4607 11.804 50.7457 11.804C51.9791 11.804 52.6091 12.4874 52.6874 13.3257C52.7407 13.799 52.7407 14.1657 52.7407 14.534V14.769H51.8474C46.9157 14.769 44.2124 16.554 44.2124 19.5974C44.2124 22.2474 46.3374 23.6907 48.6991 23.6907C49.9857 23.6907 51.1657 23.4024 52.1624 22.7724L52.7924 21.2774L53.0807 23.324ZM50.3257 20.8574C49.1974 20.8574 48.4374 20.3057 48.4374 19.2574C48.4374 17.629 50.1957 17.0007 52.7407 17.2107V18.234C52.7407 19.9657 51.5591 20.8574 50.3257 20.8574Z" fill="white"/>
<path d="M68.7208 8.9707C67.3025 8.9707 65.9125 9.2857 65.1258 9.88904L64.0758 11.4374V9.33737H59.9558V28.4674H64.0758V21.4874L64.9941 22.9574C65.7025 23.4024 67.0925 23.6907 68.2475 23.6907C71.8425 23.6907 74.9125 21.0674 74.9125 16.029C74.9125 11.909 72.5775 8.9707 68.7208 8.9707ZM67.2775 20.8574C65.7025 20.8574 64.0758 19.8074 64.0758 16.7907V16.1607C64.0758 12.959 65.5191 11.804 67.4075 11.804C69.3491 11.804 70.6875 13.5357 70.6875 16.2907C70.6875 19.3357 69.2708 20.8574 67.2775 20.8574Z" fill="white"/>
<path d="M82.0756 12.0665H85.0406V9.44147H82.0756V5.9248H77.9556V9.44147H75.8306V12.0665H77.9556V18.4948C77.9556 19.2815 77.9556 19.9115 78.0072 20.6198C78.1656 22.6665 79.1622 23.6648 82.2322 23.6648C83.1256 23.6648 83.9389 23.5848 84.7789 23.4548V20.8298C82.6789 20.9615 82.2072 20.6465 82.1022 19.2565C82.0756 18.8881 82.0756 18.4165 82.0756 17.9431V12.0665Z" fill="white"/>
<path d="M100.417 9.33691H96.3237V16.8152C96.3237 19.3869 95.2204 20.8302 93.5421 20.8302C91.9404 20.8302 91.2071 19.9902 91.0221 18.5736C90.9437 17.8652 90.9171 17.1052 90.9171 16.6586V9.33691H86.8237V17.5502C86.8237 18.6786 86.8504 19.4402 86.9554 20.1486C87.2704 22.0636 89.0021 23.6902 91.8887 23.6902C93.2004 23.6902 94.1971 23.4286 95.1421 22.7986L96.3237 20.9352V23.3236H100.417V9.33691Z" fill="white"/>
<path d="M111.253 8.9707C110.44 8.9707 109.417 9.33737 108.708 10.0724L107.658 12.014V9.33737H103.538V23.324H107.658V17.4724C107.658 13.5107 109.048 12.1974 112.303 12.4074V9.0757C111.988 9.02237 111.698 8.9707 111.253 8.9707Z" fill="white"/>
<path d="M127.128 16.0824C127.128 12.3557 124.818 8.9707 120.358 8.9707C115.923 8.9707 113.115 12.1724 113.115 16.3707C113.115 21.304 116.185 23.6907 120.095 23.6907C123.506 23.6907 126.131 21.9857 126.891 18.7574H122.825C122.588 20.0707 121.618 20.8574 120.175 20.8574C118.626 20.8574 117.471 20.0707 117.235 17.394H127.05C127.101 16.8957 127.128 16.449 127.128 16.0824ZM120.175 11.804C121.696 11.804 122.615 12.8274 122.851 14.7957H117.34C117.681 12.7224 118.705 11.804 120.175 11.804Z" fill="white"/>
<path d="M134.763 8.9707C131.246 8.9707 128.938 10.649 128.938 13.379C128.938 15.7674 130.643 16.9474 133.266 17.604C135.733 18.1807 136.626 18.7324 136.626 19.729C136.626 20.6207 135.838 21.0407 134.841 21.0407C133.686 21.0407 132.741 20.3324 132.453 19.0207H128.386C128.753 22.169 131.246 23.6907 134.815 23.6907C138.095 23.6907 140.746 22.3274 140.746 19.414C140.746 16.7907 139.013 15.6624 136.311 14.979C133.818 14.349 133.056 13.8257 133.056 12.8807C133.056 12.1457 133.608 11.594 134.5 11.594C135.523 11.594 136.128 12.2507 136.363 13.4057H140.431C140.09 10.859 138.148 8.9707 134.763 8.9707Z" fill="white"/>
</svg>
